/* XPM */
static char *_b52fdd1b63e4d6fde9390d089bbadedkR4dDmJBLWJvva47[] = {
/* columns rows colors chars-per-pixel */
"32 32 143 2 ",
"   c #000F15",
".  c #14282F",
"X  c #1A3338",
"o  c #26383E",
"O  c #273D42",
"+  c #3B3C40",
"@  c #234646",
"#  c #2D4247",
"$  c #2F4248",
"%  c #334247",
"&  c #3F4342",
"*  c #384A4A",
"=  c #334C51",
"-  c #3F5057",
";  c #3B5459",
":  c #375958",
">  c #3E615D",
",  c #434949",
"<  c #444F53",
"1  c #475153",
"2  c #48575A",
"3  c #475B5D",
"4  c #49585B",
"5  c #535D5E",
"6  c #445B61",
"7  c #535E64",
"8  c #466168",
"9  c #4A656A",
"0  c #5C6366",
"q  c #54666B",
"w  c #566B6E",
"e  c #596D6E",
"r  c #536F72",
"t  c #5D6F71",
"y  c #4F7373",
"u  c #5B7574",
"i  c #567877",
"p  c #57767B",
"a  c #627173",
"s  c #617A76",
"d  c #627579",
"f  c #68777C",
"g  c #697D7C",
"h  c #68817E",
"j  c #637F80",
"k  c #6D8384",
"l  c #6E8A8D",
"z  c #728083",
"x  c #7E8386",
"c  c #7D8B8E",
"v  c #7D908E",
"b  c #718E92",
"n  c #7B8E94",
"m  c #789497",
"M  c #7F9799",
"N  c #828D8F",
"B  c #849594",
"V  c #83969A",
"C  c #879C9D",
"Z  c #949897",
"A  c #87A19E",
"S  c #959FA3",
"D  c #81A5A5",
"F  c #8DA1A4",
"G  c #8AA8A6",
"H  c #81A7A8",
"J  c #90A0A0",
"K  c #8DAEB3",
"L  c #96AEB2",
"P  c #92B3B8",
"I  c #9BBABD",
"U  c #A5B2B6",
"Y  c #AFB5B5",
"T  c #B0B8BB",
"R  c #B9BBB8",
"E  c #A7C1BE",
"W  c #9EBEC3",
"Q  c #BDBEC0",
"!  c #A3C5C6",
"~  c #A9C6CA",
"^  c #AECACB",
"/  c #B6C5CA",
"(  c #BDCECD",
")  c #B2D1CC",
"_  c #B0D4D4",
"`  c #B4D3D8",
"'  c #BCD8D9",
"]  c #CBCBCD",
"[  c #C5D3D6",
"{  c #CDD3D3",
"}  c #C4D3D8",
"|  c #D4DEDF",
" . c #C0E0DD",
".. c #CCDBE0",
"X. c #C5E4E6",
"o. c #CFE2E0",
"O. c #D6E1E3",
"+. c #DAE2E3",
"@. c #D2E3EA",
"#. c #DBE6EA",
"$. c #D8EBEF",
"%. c #CEEFF4",
"&. c #E9E5E2",
"*. c #E6E8E5",
"=. c #E7E6EB",
"-. c #E3EBED",
";. c #ECECEB",
":. c #F0F0EE",
">. c #E0EFF2",
",. c #E6F2F4",
"<. c #EAF3F4",
"1. c #EFF8F7",
"2. c #EEF5FA",
"3. c #ECF8FC",
"4. c #F4F4F4",
"5. c #F9F6F6",
"6. c #F5F8F4",
"7. c #FAF9F6",
"8. c #F3F6FA",
"9. c #FDF7F9",
"0. c #F5FDFE",
"q. c #FAFFFF",
"w. c #FDFDFD",
"e. c #FFFDFC",
"r. c #FEFCFD",
"t. c #FFFCFD",
"y. c #FFFDFD",
"u. c #FDFFFC",
"i. c #FCFFFD",
"p. c #FFFEFD",
"a. c #FEFFFD",
"s. c #FFFFFD",
"d. c #FCFDFF",
"f. c #FFFDFE",
"g. c #FEFCFF",
"h. c #FFFDFF",
"j. c #FDFEFF",
"k. c #FCFFFF",
"l. c #FEFEFE",
"z. c #FFFEFF",
"x. c #FEFFFF",
"c. c white",
"v. c #FEFEFD",
/* pixels */
"s.s.s.s.s.s.s.s.s.s.u.u.u.u.u.s.s.s.s.s.s.s.s.s.s.s.s.s.s.s.s.s.",
"s.s.s.s.s.s.s.s.s.s.u.u.u.u.u.s.s.s.s.s.s.s.s.s.s.s.s.s.s.s.s.s.",
"s.s.s.s.s.s.s.s.s.s.s.s.s.i.s.s.s.s.s.s.s.s.s.s.s.s.s.s.s.s.s.s.",
"s.s.s.s.s.s.s.s.s.s.s.s.s.s.s.s.s.s.s.s.s.s.s.s.s.s.s.i.i.i.i.i.",
"s.s.s.s.s.s.s.s.s.s.s.s.s.s.s.s.s.s.s.s.s.s.i.i.s.i.i.i.i.i.i.i.",
"s.s.s.s.s.s.s.s.s.s.s.s.s.s.s.s.s.s.s.s.s.s.s.i.i.i.i.i.i.0.i.0.",
"s.s.s.s.s.s.s.s.s.s.s.s.s.s.s.s.s.u.u.u.u.u.s.s.s.i.i.i.i.i.i.i.",
"s.s.s.s.s.s.s.s.s.s.s.s.s.s.s.s.s.u.u.u.u.u.s.s.s.s.i.i.i.i.i.i.",
"s.u.s.s.u.s.7.s.s.r.8.s.s.s.s.s.s.s.s.7.s.s.7.s.s.s.s.s.s.s.s.7.",
"4.s.u.7.s.s.7.6.4.s.s.s.8.s.=.s.r.s.s.5.s.s.s.s.s.s.s.r.7.s.s.s.",
"u.u.4.s.s.7.s.s.s.i.8.s.s.s.s.s.s.i.s.0.s.4.s.7.s.s.s.s.r.r.r.s.",
"u.4.u.s.u.6.s.6.s.8.s.i.0.2.i.8.0.0.0.0.0.s.8.s.0.0.s.s.s.s.r.r.",
"7.u.s.7.s.s.7.s.0.i.0.0.0.i.i.0.0.U S 7 #.0.0.i.i.i.i.s.s.s.s.s.",
"u.u.s.;.s.*.Z { 0.0.i.0.0.0.c ..n . o q - } ,.O.0.i.s.s.7.s.s.s.",
"u.9.7.5.s.R & , S i.3.0.[ 4 2 q X 8 9 ; O O o a U +.i.i.u.s.u.u.",
"u.u.s.u.s.0.Y 0 5 N >.t 3 w F L W K p @ b r M C * S ,.i.i.s.s.i.",
"u.7.s.6.u.i.i.a z % $ L I ~ ` P ! H @ y D : ! G A k v 0.i.i.i.i.",
"6.u.s.s.s.+.x 1 < f k 6 9 I W %.X._ I @ i >  .) E s ( 0.,.0.i.0.",
"s.s.7.7.7.Q + 0 T i.3.@.#   = m l j ^ ' X.k u h a o.0.8.i.s.7.s.",
"s.7.u.s.s.s.] s.s.0.2.0./ q $.F V F d e 3 g B B ( i.1.s.s.s.s.s.",
"s.s.s.r.5.s.4.s.r.s.s.i.<.,.0.0.i.i.-.O.+.| i.i.i.;.s.s.;.s.s.5.",
"r.s.s.9.s.9.r.s.s.4.s.0.s.i.-.0.0.0.s.<.s.i.s.8.;.7.s.5.s.s.s.s.",
"s.s.s.9.s.r.r.s.r.s.4.s.4.s.s.s.s.7.0.0.s.s.s.s.s.s.;.9.s.&.u.9.",
"s.6.s.s.5.s.s.7.u.s.s.7.s.:.s.5.5.s.s.s.s.7.s.s.4.s.s.r.u.u.r.u.",
"s.s.s.s.s.s.s.s.s.s.s.s.s.s.s.s.s.s.s.s.s.s.s.s.s.s.s.s.s.s.u.u.",
"s.s.s.s.i.i.i.i.i.i.i.s.s.s.u.s.s.s.s.s.s.s.s.s.s.s.s.s.s.s.u.u.",
"s.s.i.i.i.i.i.i.i.i.i.s.s.s.s.s.s.s.s.s.s.s.s.s.s.s.s.s.s.i.i.i.",
"s.s.s.i.i.i.i.i.i.i.i.i.s.s.s.s.s.s.s.s.s.s.s.s.s.s.s.s.s.i.i.i.",
"s.s.s.s.s.i.i.i.i.i.i.i.s.s.s.s.s.s.i.s.s.s.s.s.s.s.s.s.s.s.s.i.",
"s.s.s.s.s.s.s.s.i.i.i.s.s.s.s.s.s.s.s.s.s.s.s.s.s.s.s.s.s.s.s.s.",
"s.s.s.s.s.s.s.s.s.s.s.s.s.s.s.s.s.s.s.s.s.s.s.s.s.s.s.s.s.s.s.s.",
"r.s.s.s.s.s.s.s.s.s.s.s.s.s.s.s.s.s.s.s.s.s.s.s.s.s.s.s.s.s.s.s."
};
