/* XPM */
static char *_93bcd8e679a4d72ff5f34fa377a6e74VzlKAIiB6YUcEzmt[] = {
/* columns rows colors chars-per-pixel */
"32 32 180 2 ",
"   c #020002",
".  c #0C0600",
"X  c #050801",
"o  c #0D0B01",
"O  c #01020B",
"+  c #0C0D0B",
"@  c #130601",
"#  c #1A0400",
"$  c #140A01",
"%  c #1B0C01",
"&  c #100D08",
"*  c #1A0B0A",
"=  c #0B1103",
"-  c #0C120E",
";  c #141507",
":  c #1A1402",
">  c #1B120B",
",  c #00051A",
"<  c #0B1514",
"1  c #081118",
"2  c #240701",
"3  c #230C01",
"4  c #280C00",
"5  c #260E0A",
"6  c #300E04",
"7  c #350F0E",
"8  c #271500",
"9  c #2B1102",
"0  c #2F1308",
"q  c #351200",
"w  c #4F2403",
"e  c #4B2904",
"r  c #532600",
"t  c #532B00",
"y  c #5D2F00",
"u  c #4F3900",
"i  c #553703",
"p  c #5E3303",
"a  c #593903",
"s  c #53350F",
"d  c #5C3609",
"f  c #55390B",
"g  c #5B3A0C",
"h  c #472D12",
"j  c #482F11",
"k  c #513810",
"l  c #642F00",
"z  c #633403",
"x  c #6A3401",
"c  c #653906",
"v  c #6B3B03",
"b  c #63340A",
"n  c #683108",
"m  c #623C0A",
"M  c #6C3C0A",
"N  c #713700",
"B  c #733B01",
"V  c #71360A",
"C  c #713B0B",
"Z  c #6E3B10",
"A  c #5F400A",
"S  c #664404",
"D  c #694400",
"F  c #674A00",
"G  c #694805",
"H  c #64430B",
"J  c #6F450D",
"K  c #764205",
"L  c #77430A",
"P  c #6A4113",
"I  c #864300",
"U  c #854C07",
"Y  c #894C00",
"T  c #8A4C0E",
"R  c #9B4E01",
"E  c #8D5905",
"W  c #965303",
"Q  c #9D5401",
"!  c #9E5801",
"~  c #95550D",
"^  c #9C5509",
"/  c #945C09",
"(  c #9C5908",
")  c #905616",
"_  c #935816",
"`  c #9D5910",
"'  c #A04E00",
"]  c #A25401",
"[  c #AB5604",
"{  c #A45A01",
"}  c #AA5B03",
"|  c #A3540B",
" . c #A85509",
".. c #A75D08",
"X. c #AA5B0A",
"o. c #BC5D03",
"O. c #BD5D09",
"+. c #A25512",
"@. c #B56302",
"#. c #BB6503",
"$. c #B76900",
"%. c #BD6A05",
"&. c #B6650B",
"*. c #BC670A",
"=. c #B66B0B",
"-. c #BC6C0C",
";. c #BB710A",
":. c #B96A13",
">. c #C46402",
",. c #C86401",
"<. c #C46C04",
"1. c #CC6B04",
"2. c #CC6F05",
"3. c #CB6D02",
"4. c #C2660B",
"5. c #C46A09",
"6. c #C56B0A",
"7. c #C26F09",
"8. c #C46C08",
"9. c #C0690C",
"0. c #C26E0C",
"q. c #C06D0D",
"w. c #C66E0C",
"e. c #C56C0A",
"r. c #C96809",
"t. c #CB6F0C",
"y. c #CB6E0F",
"u. c #CC6D0F",
"i. c #CC6D0A",
"p. c #D26D03",
"a. c #D06A06",
"s. c #D06D05",
"d. c #D16D0B",
"f. c #C27002",
"g. c #C57500",
"h. c #C47403",
"j. c #C57005",
"k. c #C57101",
"l. c #CA7100",
"z. c #CB7103",
"x. c #CD7100",
"c. c #CC7003",
"v. c #CE7301",
"b. c #C97600",
"n. c #C87004",
"m. c #C87107",
"M. c #CB7007",
"N. c #CF7505",
"B. c #CC7102",
"V. c #C77208",
"C. c #C7710A",
"Z. c #CD710E",
"A. c #CB7209",
"S. c #D17100",
"D. c #D07200",
"F. c #D27303",
"G. c #D97600",
"H. c #D67B00",
"J. c #D97900",
"K. c #D97C05",
"L. c #DB7B01",
"P. c #D3760C",
"I. c #D4740D",
"U. c #C86311",
"Y. c #C86510",
"T. c #C66810",
"R. c #C76D15",
"E. c #C76E14",
"W. c #C36F11",
"Q. c #CC6F12",
"!. c #D16E11",
"~. c #D66C14",
"^. c #D06D10",
"/. c #D86F14",
"(. c #C77013",
"). c #CE7010",
"_. c #CB7014",
"`. c #CB7913",
"'. c #C6721A",
"]. c #E07B07",
/* pixels */
"O 9 o o # o ; o $ @ $ $ $ $ $ $ 3   > o % o % $ $ o # % o # % 1 ",
"% @.D.c.~.<.<.a.2.3.z.n.n.n.3.c.T 7 @.8.^.c.z.8.<.<.1.3.8.p.D.! ",
"+ h.J.%.).b.3.3.5.8.8.8.w.5.<.P.D   <.K.R.3.5.R.y.V.y.8.q.r.3.I ",
". #.9.W W Q | ! Q ] { ] { ] [ $.Z o ,.Z.W ] R [ Q W R Q ! ] =.K ",
"% 3.u.( ! { +.! ] { { ] { [ [ q.V $ ,.1.W } ] } ..} } { ! ] =.K ",
"X f.3.' [ } Q [ ] ] ] Q ] ] [ &.S   h.z.| } ^ ^ Q Q | ] ! X.&.B ",
"% 7.N.@.U.#.@.T.%.#.%.%.#.%.%.n.C # ;.j.O.#.$.-.%.%.*.#.@.>.#.Y ",
"@ c k u n z m z c z c z p b z z w @ i a x b z x b a z c d x z h ",
"$ $ % $ $ $ $ $ 4 O : $ $ $ * % $ $ $ $ $ $ $ $ $ 3 , % & o 4 $ ",
"c.3.c.z.2.A.c.F.U 6 @.<.I.2.F.n.z.2.2.2.z.z.2.2.I.) % c.1.`.,.A.",
"8.8.8.8.8.r.<.P.F   k.H.(.,.5.5.8.8.8.8.8.8.8.8.3.J o <.L.%.V.k.",
"] ] ] Q ] ] ] #.v + ,.i.W ] R } ] ] Q ] ] ] ] Q 8.x % %.C.W ] Q ",
"] { { ] { ] [ -.N @ ,.2.W } | } ] ] ] ] ] ] ] ] <.x 3 <.>.Q ] X.",
"] ] { ] | ] [ &.G   V.v.] } W W ] ] ] ] ] ] ] ] <.H - @.3.W X.Q ",
"8.#.%.%.%.%.%.V.v # :.j.o.#.%.;.%.%.%.%.%.%.%.%.%.v # 8.P.-.4.&.",
"c y p p p b p p t @ g d x p b p p p p p z z p p d w * N t d x g ",
"O 8 . $ # $ > & % $ $ $ $ % $ $ 3   : = # $ $ % $ $ # $ & # % < ",
"2 @.F.s./.3.3.p.z.3.c.z.n.A.3.D.T 0 #.3.).c.s.8.3.z.2.3.A.I.D...",
"= h.J.%.^.z.8.a.5.8.8.8.w.5.<.P.D   k.G.'.<.i.W.y.V.y.<.q.r.3.I ",
". >.-.E R Q ^ ] Q Q ! Q ] ] ] $.M $ ,.V.W ' W [ ] R ] ] ! ] *.K ",
"% a.Q./ ] { ` ! ] { { ] { [ [ -.V # ,.2.R } ! } X.{ ..{ ! ] :.L ",
"X k.3.R [ } Q  .| ] ] Q | ] [ &.S   k.F.^ } ] ~ R Q ] Q Q [ &.B ",
"2 W.A.#.Y.#.@.8.%.%.%.%.#.%.%.V.C # -.i.O.#.>.=.%.%.5.#.$.<.#.Y ",
"# m s a n p n d z p m z p b z z e # f f x c c l p p p z m x z j ",
"$ # % $ $ $ $ % 3 O : $ % $ * % $ $ $ $ $ $ $ $ % % , % > o 4 $ ",
"c.3.c.z.z.c.3.F.Y q @.<.d.2.i.5.z.z.z.z.c.c.z.z.3._ 4 3.,.`.,.8.",
"w.8.8.5.w.w.<.P.S   <.L.(.3.8.V.8.8.8.8.w.w.8.8.c.J o k.].$.8.z.",
"Q Q Q Q ] Q ] &.v + ,.i.W Q R { Q Q Q Q Q Q Q Q 5.x % #.9.! R W ",
"{ { } { { ] { -.B @ ,.2.W } +.} { { { { { { { { <.v 3 5.>...[ ..",
"] ] { ] ] ] [ &.H   C.z.[ } ! Q ] ] ] ] ] ] ] ] j.A - %.s.R [ ] ",
"*.@.%.#.#.*.*.8.v # -.<.o.#.*.&.*.*.*.*.*.*.*.#.#.v % >.d.*.4.@.",
"M x v c c M v v t % g m N M C v v v v v v v v v P r 5 B m m N m "
};
