/* XPM */
static char *_09e242267844cb8d20ff4d8b2b89a9dyVf1Wz4heTjtzs4L[] = {
/* columns rows colors chars-per-pixel */
"29 32 237 2 ",
"   c #00378E",
".  c #003E93",
"X  c #003C9C",
"o  c #003EA3",
"O  c #024594",
"+  c #004A94",
"@  c #004B9C",
"#  c #00439B",
"$  c #104F9F",
"%  c #025194",
"&  c #06569D",
"*  c #195C9C",
"=  c #0E518B",
"-  c #305B85",
";  c #1C6695",
":  c #0243A2",
">  c #004CA4",
",  c #0045AA",
"<  c #004DAC",
"1  c #0949A9",
"2  c #0C4DA2",
"3  c #124DAC",
"4  c #0154A3",
"5  c #005DA5",
"6  c #0053AC",
"7  c #0C55AD",
"8  c #005DAC",
"9  c #0B5AAA",
"0  c #0B5AA5",
"q  c #165AA8",
"w  c #0147B4",
"e  c #014CB4",
"r  c #014CBC",
"t  c #084BB6",
"y  c #0152B2",
"u  c #005BB4",
"i  c #0154BC",
"p  c #015ABC",
"a  c #095CBB",
"s  c #0B57B8",
"d  c #115BB9",
"f  c #1659BA",
"g  c #225BA2",
"h  c #0163AD",
"j  c #0663AA",
"k  c #1C62AE",
"l  c #1966A8",
"z  c #0165B3",
"x  c #006BB3",
"c  c #0264BA",
"v  c #0B63BB",
"b  c #026BBA",
"n  c #096ABF",
"m  c #0B67B4",
"M  c #1363BC",
"N  c #1867B8",
"B  c #0172BF",
"V  c #0B74B9",
"C  c #1478B7",
"Z  c #0472AF",
"A  c #2767A9",
"S  c #3575AC",
"D  c #246ABA",
"F  c #3B6AB4",
"G  c #2977B4",
"H  c #3F78B4",
"J  c #356FA3",
"K  c #004DC2",
"L  c #0C5CC4",
"P  c #0657C5",
"I  c #135BC4",
"U  c #0364C4",
"Y  c #0D63C5",
"T  c #016CC2",
"R  c #0B6DC5",
"E  c #0D65CB",
"W  c #046BCC",
"Q  c #096CCA",
"!  c #0065CA",
"~  c #1262C6",
"^  c #1B62C1",
"/  c #136CC4",
"(  c #196DC5",
")  c #1566CB",
"_  c #136ACC",
"`  c #1B6DCC",
"'  c #1C66CB",
"]  c #0574C4",
"[  c #0A74C3",
"{  c #0B76CC",
"}  c #027DCB",
"|  c #0D7CCC",
" . c #0677C9",
".. c #1472CA",
"X. c #1B73CE",
"o. c #137ACB",
"O. c #1B7ACD",
"+. c #1675C3",
"@. c #0D68D7",
"#. c #156CD3",
"$. c #1C6ED4",
"%. c #1C6CDB",
"&. c #1668D8",
"*. c #0D7AD2",
"=. c #0A77D7",
"-. c #1474D3",
";. c #1B74D4",
":. c #147CD3",
">. c #1B7BD3",
",. c #1C73DB",
"<. c #1A7CDB",
"1. c #1376DB",
"2. c #246AC5",
"3. c #2576CB",
"4. c #206FD6",
"5. c #2872D4",
"6. c #217CDA",
"7. c #2474D5",
"8. c #1B6EE2",
"9. c #1B73E1",
"0. c #147BE2",
"q. c #277DE3",
"w. c #417CDA",
"e. c #2A87A7",
"r. c #3985BD",
"t. c #0684CA",
"y. c #1D83CB",
"u. c #1885C9",
"i. c #0B87D5",
"p. c #1483D4",
"a. c #1B8ADE",
"s. c #1887D7",
"d. c #1B94DB",
"f. c #288ACB",
"g. c #359ACC",
"h. c #2689D9",
"j. c #3C89D3",
"k. c #2697DC",
"l. c #338CCE",
"z. c #3FA3DE",
"x. c #1C8AED",
"c. c #1B89E5",
"v. c #1D96E5",
"b. c #179BE5",
"n. c #0F8DE4",
"m. c #2285E3",
"M. c #2B84E7",
"N. c #228AE5",
"B. c #298BE1",
"V. c #2489EC",
"C. c #368DE9",
"Z. c #2494E6",
"A. c #2998E7",
"S. c #3598E8",
"D. c #2280F1",
"F. c #2792F3",
"G. c #359BF7",
"H. c #24A2E8",
"J. c #3CA4EC",
"K. c #37A8EA",
"L. c #26A8F5",
"P. c #3CAAFA",
"I. c #3AA4F4",
"U. c #38B2FF",
"Y. c #5090CE",
"T. c #4885D2",
"R. c #4A93D0",
"E. c #739DD1",
"W. c #6BAEDC",
"Q. c #4C84E7",
"!. c #528AE0",
"~. c #479EE6",
"^. c #5A9FE7",
"/. c #518CF0",
"(. c #5A9CF7",
"). c #6C9CF0",
"_. c #55AAE7",
"`. c #57B1EB",
"'. c #40ABFB",
"]. c #4DADFF",
"[. c #46A2F7",
"{. c #4BBAFF",
"}. c #48B7FE",
"|. c #59B8FC",
" X c #49ACEE",
".X c #6CA6EA",
"XX c #77ACEB",
"oX c #6CACF2",
"OX c #6AABF9",
"+X c #69A8F8",
"@X c #75A9FA",
"#X c #6BBBFE",
"$X c #68B8F8",
"%X c #7FBBFF",
"&X c #78B7F9",
"*X c #70B1EA",
"=X c #4DC1FF",
"-X c #45C3FF",
";X c #55C6FF",
":X c #59C3FF",
">X c #5ECBFE",
",X c #53C9FF",
"<X c #5EDBFF",
"1X c #5FD7FF",
"2X c #65CBFF",
"3X c #63C6FF",
"4X c #79C9FF",
"5X c #6BD3FF",
"6X c #6CDCFF",
"7X c #63D4FF",
"8X c #7ADCFF",
"9X c #74DBFF",
"0X c #7BE3FF",
"qX c #75E7FF",
"wX c #82B9FF",
"eX c #82B2F4",
"rX c #8FBCE6",
"tX c #81CDEF",
"yX c #83C9FE",
"uX c #92D9FF",
"iX c #A4CDFF",
"pX c #82E9FF",
"aX c #96ECFF",
"sX c #94E3FF",
"dX c #86F5FF",
"fX c #9FFEFF",
"gX c #ABEAFF",
"hX c #BAECFF",
"jX c #B1EDFF",
"kX c #ABF4FF",
"lX c #ABFCFF",
"zX c #B3FDFF",
"xX c #B5F3FF",
"cX c #C5EBFF",
"vX c #C2FEFF",
"bX c #C7F6FF",
"nX c #DCF6FF",
/* pixels */
"nXbXhXzXlXkXxXbXcXcXhXvXlXzXlXlXjXbXhXgXvXvXvXkXjXbXhXcXnX",
"rX- H A G r.S A F F A ; e.e.g.R.* = g * J W.tX= l A H J E.",
"eXS G N j O k q 2.2.3.l.>Xg.f.5 0   3 N l `.aX`.3.0 D * W.",
"uX^.m > 6 6 # f I a u s.7Xk.>.< < t I ) / f.|.0XB.< v 9 $X",
"kX4Xa i a , f w r P y T A.{ ,.&.e %.%.E ..o.[ Z.W < p v `.",
"#Xj C.i o e , w K D.x.n.i.T 1.%.&.%.8.%.-.:.b ] x.V.F.h.|.",
"`.+ o.| a.I.G.>.W 1.n.i.t.} =.1.%.L P E u b +.'.G.V.6.+._.",
"$X% & { P.qX5X3Xm.p c t.b.i. .W _ L w < 4 m y.9X].;.: @ R.",
"&Xq 4 @ [ pXV @ y ~ X.+.V A.-., u < p < + f.9XJ.R 6 6 & *X",
"eXA 0 [.{.J.z 4 ' 5.^ M j |.G.U 6 : y < I.5XqXV u y M k *X",
"&XA / }.}.i.x n ~ 7.a v 4 2X{.1.{ T ! W ;X=XK.8 u P 7.D oX",
"wXk ..c.v.} ] [ ;.$.p u 4 2X:XV.F.G.F.x.v.} 5 6 W @.;.M oX",
"%XD Y m.Z.c s.R _ e : # 4 h.M.i < { 0.=.*.a.p.:.1.@.%.s +X",
"OX0 6.<.a.p.P.S.h.-.G.'.I.O.p , Y U ,.W :.| p.:.0.8.,.s ^.",
"$X5 h.z z A.>X>XZ.s.-X<X1XV > s 5.M $.) ..4 8 C.q.&.' 1 !.",
"8Xy.x 8 4 ] 6X:XZ.u z t.H.j > ;.v 3.( / u 4 + S.6.L e . Y.",
"$X& % h | b ].M.i y U {  .{.{.p.a.| x h } i.d.7X'.s.h.|.sX",
"#X% h x [ s.;.) w w Y -.{ P.I.s.L.H.d.t.L.b.i.{.Z.:.s.~.yX",
"#Xj V u.p.A.y , w e Y -.R >.o.o.p.,XdX6XU.} > > y e e < T.",
"zX#XJ.;X=XI.Q e P I $.;.....v +.:.A.J.S.u U p ! r P K w !.",
"uX~.y.P.U.T u < r P ) ) ;.X.M M U Q >.B.0.! , e w K K t ).",
"#X9 h p.Z.u < p e i ) Y ;.( 7 < , ! X.u G.0.i i e r P f @X",
"%X9 m o.v.T y U #.E <._ ..v 6 > p p 6 @ c.V.U < e s ~ f XX",
"@X2 @ o.v.} W W <.Q -.c u @ > > 6 . m |.A.c.[ / < s ` N .X",
"+XO 4 o.d.B p.{ <.-.<.:.T o.h.y.b V z.pXk.B o.O.a L #.d .X",
"@X$ @ y.A.i.T  .Q N.G.c.Z.5XdX5XS.:X0X0Xx z [ n _ #.9.~ +X",
"wX2 O }.qX1X| a.S.:.:.p.{ [ o.:.] ] S.8Xp.6 u ;.#.#.9.L +X",
"wXG 0 y.}.dXI.o.>.R R R c T ....1.Q h.].U y y _ $.#.9.L +X",
"oXA C C u.;XI.O.( 3.( u 6 v ( _ @.9.q.C.! ! p ` ` ' 4.d .X",
"yX* C f.y.u.+.( 3.^ s s y < d 5.,.E 2.C.[.-.X < ^ ^ 5.N XX",
"gX_.l.C Z V N 7 1 3 : X X : : 1 7 4 % & ].C.@ O 2 3 2.q E.",
"zXsX2X XK. X[.(.w.Q.Q.Q././.Q.Q.j.j.R.r.aX4Xj.T.T.!.(.!.iX"
};
