/* XPM */
static char *_5e14a1e48504272a3ff27c1139ab3dclRzIXPFcCUcgUhys[] = {
/* columns rows colors chars-per-pixel */
"32 32 226 2 ",
"   c #090000",
".  c #000007",
"X  c #130704",
"o  c #180904",
"O  c #1C150C",
"+  c #0C1417",
"@  c #1C1A1B",
"#  c #191418",
"$  c #271708",
"%  c #361907",
"&  c #2A1916",
"*  c #270B00",
"=  c #2C241C",
"-  c #29241A",
";  c #392618",
":  c #3D2B13",
">  c #161721",
",  c #351F21",
"<  c #221B22",
"1  c #172B29",
"2  c #272727",
"3  c #372B26",
"4  c #3A2C29",
"5  c #3C342A",
"6  c #2E2F31",
"7  c #372B32",
"8  c #3A3736",
"9  c #233134",
"0  c #421300",
"q  c #493011",
"w  c #4C2B17",
"e  c #67351C",
"r  c #463121",
"t  c #43352B",
"y  c #4D392C",
"u  c #493528",
"i  c #55392C",
"p  c #473634",
"a  c #5C3E35",
"s  c #693D28",
"d  c #663B32",
"f  c #79451D",
"g  c #42443C",
"h  c #494A3E",
"j  c #574738",
"k  c #49432B",
"l  c #634D3D",
"z  c #714A38",
"x  c #615034",
"c  c #734C2B",
"v  c #353942",
"b  c #483947",
"n  c #444342",
"m  c #4B4947",
"M  c #584C44",
"N  c #58534D",
"B  c #585756",
"V  c #485754",
"C  c #704741",
"Z  c #6E5B4C",
"A  c #695240",
"S  c #7D5D47",
"D  c #685954",
"F  c #7C5E50",
"G  c #705E54",
"H  c #78614F",
"J  c #6D635B",
"K  c #736258",
"L  c #5B5D61",
"P  c #4B5F68",
"I  c #605B61",
"U  c #4F616B",
"Y  c #5C656C",
"T  c #6B6665",
"R  c #736C6B",
"E  c #7A6B66",
"W  c #6F706B",
"Q  c #7F746D",
"!  c #676C72",
"~  c #6D747B",
"^  c #7C7D7C",
"/  c #747678",
"(  c #89372F",
")  c #835638",
"_  c #9F5530",
"`  c #894932",
"'  c #936738",
"]  c #B87035",
"[  c #C16E38",
"{  c #994D40",
"}  c #A35A54",
"|  c #86695B",
" . c #AF6059",
".. c #B37258",
"X. c #837771",
"o. c #957A73",
"O. c #8C7569",
"+. c #A87465",
"@. c #BB7F63",
"#. c #B87B7A",
"$. c #908976",
"%. c #A68260",
"&. c #B08B74",
"*. c #C18273",
"=. c #CC8F6C",
"-. c #FC9E68",
";. c #D1A37F",
":. c #707682",
">. c #8D8C8E",
",. c #878B8B",
"<. c #958986",
"1. c #8C908F",
"2. c #94908F",
"3. c #8A8E90",
"4. c #8D9095",
"5. c #9C9796",
"6. c #A29C8E",
"7. c #B99C94",
"8. c #9DA29E",
"9. c #B2A59D",
"0. c #8495A5",
"q. c #8D99A4",
"w. c #8B9AA7",
"e. c #929CA6",
"r. c #939FA9",
"t. c #9A9DA2",
"y. c #8DA0AF",
"u. c #95A2AC",
"i. c #9AA4AD",
"p. c #9FA3A6",
"a. c #8FA2B1",
"s. c #97A5B0",
"d. c #9BA7B1",
"f. c #9DA9B3",
"g. c #9FACBB",
"h. c #A4AAAB",
"j. c #A9ABAD",
"k. c #A9A7A6",
"l. c #B1B0AC",
"z. c #A2ACB6",
"x. c #A4AEB9",
"c. c #AEACB1",
"v. c #BAACB1",
"b. c #A5B2BB",
"n. c #AAB4BE",
"m. c #AEB5BB",
"M. c #BDBBBB",
"N. c #B6B6B6",
"B. c #B4ACA9",
"V. c #C59589",
"C. c #D4AA98",
"Z. c #D4B296",
"A. c #E5A988",
"S. c #FFBD89",
"D. c #D4BFBE",
"F. c #CBB8AF",
"G. c #E3BCAA",
"H. c #FFD19B",
"J. c #C7C1BD",
"K. c #FFCBBC",
"L. c #FBD7BA",
"P. c #F2C4A2",
"I. c #A4B4C3",
"U. c #ACB6C1",
"Y. c #AEB9C3",
"T. c #ACBBC9",
"R. c #A7B8C0",
"E. c #B2BCC5",
"W. c #BBBFC5",
"Q. c #B4BEC9",
"!. c #B3B7C0",
"~. c #B6C0C7",
"^. c #B5C1CA",
"/. c #BBC4CC",
"(. c #BFC8CF",
"). c #BAC1C7",
"_. c #BDC6D0",
"`. c #BEC9D3",
"'. c #B5C5D1",
"]. c #ADC0C7",
"[. c #C3C5CA",
"{. c #C4CACD",
"}. c #C9CACD",
"|. c #CDC9C6",
" X c #D6CBC6",
".X c #C3CBD3",
"XX c #CACED4",
"oX c #C5CFD9",
"OX c #C9CED9",
"+X c #C7D0D7",
"@X c #CAD0D4",
"#X c #C3D2DA",
"$X c #CBD3DA",
"%X c #CFD8DD",
"&X c #D4D5D6",
"*X c #D0D7DD",
"=X c #D4DADD",
"-X c #DBDCDB",
";X c #DCD0D0",
":X c #D0D8CD",
">X c #E6D7DA",
",X c #D7E0DD",
"<X c #FFEDD6",
"1X c #CCD9E1",
"2X c #C2D5E6",
"3X c #D3DBE1",
"4X c #DADFE3",
"5X c #DCDFFF",
"6X c #DAE1E6",
"7X c #DCE4EA",
"8X c #D4E3E8",
"9X c #D8E7F3",
"0X c #D5F8F1",
"qX c #E0E6EC",
"wX c #E3E9ED",
"eX c #E8E5E7",
"rX c #F5ECE6",
"tX c #FDF3EC",
"yX c #F4F5EF",
"uX c #E4ECF3",
"iX c #EBEDF3",
"pX c #E9E7F4",
"aX c #E8F6FB",
"sX c #F4FAFF",
"dX c #F8F6F5",
"fX c #E5F2EB",
/* pixels */
"q.w.e.u.u.i.z.z.m.z.].b.T.E.Q.Y.^.~.b.n.E.Y.E.h.z.f.i.u.r.e.q.q.",
"w.e.u.i.d.f.x.b.n.U.n.~..Xc.5.l.j.l.M.[.Q.T.b.n.b.z.d.i.i.r.e.q.",
"r.u.i.d.f.x.n.n.Q.`.^.M.l.<.X.O.X.<.9.F.!.`.T.'.n.b.z.f.i.i.r.e.",
"r.u.i.f.x.n.Y.E.U.Q.`.m.<.E E M G K G Q >..X/.Y.E.U.b.z.f.i.u.e.",
"u.u.d.g.b.U.E.^.XX{.%Xh.T 7 8 @ = p y M R M.XX}.^.E.U.b.z.f.i.r.",
"u.s.f.b.n.E.^./.[.XX{./ 6 # # + # 4 y j E M.XX}._./.E.n.b.z.i.u.",
"s.d.z.b.Y.^._..X+X8X=X^ & & $ O o $ w % D &X3X.X.X_.^.Y.n.x.f.i.",
"d.f.b.U.E./..XoX1X#XwXJ.j l u u a O.G.| X.iX8X2XoX.X/.E.U.b.z.i.",
"d.z.b.E.).(.XX$X:XfX,Xv.&.z ` *.Z.P.L.C.F.rX-X=X%X@X(.).E.n.z.d.",
"f.x.n.E.)..X$X*X9XeXG.( #.y $ c ` % j ;.=.G.iX9X=X$X.X/.Q.U.x.f.",
"z.b.Y.Q.(..X%X3X5XdXG.(  .A : ) ..j $.H.-.K.eX8X3X*X.X(.).E.n.z.",
"x.b.Y.)..X$X=X4XpX8X8.| +.c +.} A.L.L.S.A.J.uXyX6X3X$X.X/.Q.n.x.",
"b.n.E./..X$X3X6XsXh.9 1 m +.{ ` &.=.%.) E ,./.pX7X4X%X.X_.Q.U.b.",
"b.U.Q.(..X%X4X7X0X;X, + P 7 d c ' e C t O h m.sXqX6X%X.X`.Q.Y.b.",
"b.Y.^.`.+X3X6XqXaX>X4 m U >   $ % u E o.j 5 wXsXwX6X3X$X.X/.Y.n.",
"b.Y.^..X$X3X7XwXdXpX~ V 2 8 b b D L J ) %.T sXrXuX7X3X$X.X/.E.n.",
"b.U.^..X$X3X7XuXiXtX X3 @ < & % t F x 0 ) <XtXaXuX6X%X$X.X^.Y.U.",
"b.Y./..X$X3X7XiX).L n R I 2 M Z v V G l z C.$.F.aX7X3X$X.X).Y.n.",
"b.Y./..X$X3X7XiX:.@ @ 8 ! 2 t y 3 8 J J j & N >.uX7X3X+X.X/.Y.x.",
"b.Y.^..X+X3X6XwXT X # 6 6 @ - $ - o g 4 X.= a Z 4X6X3X.X_./.E.x.",
"b.U.Q.`.$X3X3X6Xz * J 5.B X = 5 + 2 2 T tXC._ ] &X3X3XoX_.^.E.x.",
"b.U.E.(.+X%X3X4Xs a G tXX.O = = & - $ 6.tXV.f ] &X=X3X#X_.Q.U.x.",
"z.n.E./..X$X3X6Xs i J.R   ; r u w q S j 8 v.K e -X=X$X`.^.T.U.x.",
"f.b.E.^.)..X=XqX7.D ~ > 3 % % | l % k N . p.o.&.-X&X.X'.Q.T.n.x.",
"g.I.Y.Q./..X$X%X4XsXY - : % 5 3Xl.; % S B.9XuX3X%X$X.X).E.U.b.z.",
"x.b.n.E.~.(..X.X=X3X%XT r : N aX4Xt w H eX1X7X$X$X.X(.Q.E.n.x.z.",
"x.b.n.m.Q.).[..XXX.XiXk.$ $ 8 wX4Xh $ Z eX3X$X$X.X(.^.E.U.U.x.x.",
"x.b.b.n.Y.E./._.XX.X{.N 5 X R wX=XW O M k.XXOXOX_./.^.E.E.E.U.U.",
"I.I.I.I.R.I.T.T.Q.z.m n M 3 W =X%X1.N m ,.j.$XE._.(./.).).Q.Q.Q.",
"a.y.w.w.0.0.0.0.q.! + n m g m >.3.B 6 # n / XXOX(.(.(.(.(._._._.",
"U.R.b.b.x.x.x.g.b.i.^ ^ ^ p.h.k.h.t.4.>.2.k.W.W.[.[.[.}..X.X.X.X",
".X.X.X.XXX$X$X$X#X$X&X-X=X@XXX}.}.XXXX}.|.|.}.{.[.[.}.}.}.}.XXXX"
};
